/* XPM */
static char *_d7153cad5164bdfac0b720b668007c5eDk4lPYshvYNidqm[] = {
/* columns rows colors chars-per-pixel */
"50 50 52 1 ",
"  c None",
". c #40396E",
"X c #433C6F",
"o c #443C6E",
"O c #58456A",
"+ c #684C68",
"@ c #765266",
"# c #795769",
"$ c #825863",
"% c #996360",
"& c #856778",
"* c #D47F56",
"= c #B1837E",
"- c #D7835A",
"; c #DD8B60",
": c #E49368",
"> c #5F5985",
", c #625D87",
"< c #9F9BB4",
"1 c #9F9CB4",
"2 c #ABA8BD",
"3 c #ACAABE",
"4 c #B6B6B6",
"5 c #BBBBBB",
"6 c #C59081",
"7 c #C59181",
"8 c #DBA084",
"9 c #DCA084",
"0 c #EAA986",
"q c #FDB689",
"w c #FFB789",
"e c #C2C0CE",
"r c gray81",
"t c #CDCCD7",
"y c #CFCDD8",
"u c #D5D5D5",
"i c #D7D7D7",
"p c #D4D3DC",
"a c #DADADA",
"s c #DDDCE2",
"d c #DDDCE3",
"f c #DEDDE3",
"g c #E4E4E4",
"h c #E6E5E9",
"j c #E9E9E9",
"k c #EAEAEA",
"l c gray92",
"z c #EEEEEE",
"x c #EFEFEF",
"c c gray94",
"v c #F1F1F1",
"b c gray95",
/* pixels */
"                                                  ",
"         bbbbbbbbbbbbbbbbbbbbbbbbbbbbbbbb         ",
"        cbbbbbbbbbbbbbbbbbbbbbbbbbbbbbbbbb        ",
"       bbbieeeeeeeeeeeeeeeeeeeeeeeeeeeepbbu       ",
"       bbho............................Xhbk       ",
"       bbs.+%%%%%%%%%%%%%%%%%%%%%%%%%%+.sbk       ",
"       bbs.$**--**********************$.sbk       ",
"       bba.#*-::::::::::::::::::::::-*$.sbk       ",
"       bbs.$--wwwwwwwwwwwwwwwwwwwwww;*$.sbk       ",
"       bbs.$-;wwwwwwwwwwwwwwwwwwwwww;*$.sbk       ",
"       bbs.$--wwwwwwwwwwwwwwwwwwwwww;*$.sbk       ",
"       bbs.$-;wwwwwwwwwwwwwwwwwwwwww;*$.sbk       ",
"       bbs.$*-wwwwwwwwwwwwwwwwwwwwww;*$.sbk       ",
"       bbs.$-;wwwwwwwwwwwwwwwwwwwwww;*$.sbk       ",
"       bbs.$-;wwwwwwwwwwwwwwwwwwwwww;*$.sbk       ",
"       bbs.$*-wwwwwwwwwwwwwwwwwwwwww;*$.sbk       ",
"       bba.$-;wwwwwwwwwwwwwwwwwwwwww;*$.sbk       ",
"       bba.$-;wwwwwwwwwwwwwwwwwwwwww;*$.sbk       ",
"       bbg.$--wwwwwwwwwwwwwwwwwwwwww;*$.sbk       ",
"       bbso#-;wwwwwwwwwwwwwwwwwwwwww;*$.sbk       ",
"       bbs.$--wwwwwwwwwwwwwwwwwwwwww;*$.sbk       ",
"       bbs.$-;wwwwwwwwwwwwwwwwwwwwww;*$.sbk       ",
"       cbs.$--wwwwwwwwwwwwwwwwwwwwww;*$.sbk       ",
"       bbs.$-;wwwwwwwwwwwwwwwwwwwwww;*$.sbk       ",
"       bbs.$--wwwwwwwwwwwwwwwww==www;*$.sbk       ",
"       bbs.$-;wwwwwwwwwwwwwwww6..7ww;*$.sbk       ",
"       bbs.$--wwwwwwwwwwwwwwww8.o9ww;*$.sbk       ",
"       bbs.$*-wwwwwwwwwwwwwwwww00www;*$.sbk       ",
"       bbs.$-;wwwwwwwwwwwwwwwwwwwwww;*$.sbk       ",
"       bbs.$*;wwwwwwwwwwwwwwwwwwwwww;*$.sbk       ",
"       bbs.$*-wwwwwwwwwwwwwwwwwwwwww;*$.sbk       ",
"       bbs.$-;wwwwwwwwwwwwwwwwwwwwww;*$.sbk       ",
"       bbs.$*;wwwwwwwwwwwwwwwwwwwwww;*$.sbk       ",
"       bbs.$*-wwwwwwwwwwwwwwwwwwwwww;*$.sbk       ",
"       bbs.$-;wwwwwwwwwwwwwwwwwwwwww;*$.sbk       ",
"       bbs.$-;wwwwwwwwwwwwwwwwwwwwww;*$.sbk       ",
"       bbf.$*;wwwwwwwwwwwwwwwwwwwwww;*$.sbk       ",
"       bba.$*-wwwwwwwwwwwwwwwwwwwwww;*$.sbk       ",
"       bbs.$-;wwwwwwwwwwwwwwwwwwwwww;*$.sbk       ",
"       bbs.#-;wwwwwwwwwwwwwwwwwwwwww;*$.sbk       ",
"       vbs.$*;wwwwwwwwwwwwwwwwwwwwww;*$.sbk       ",
"       bbs.$*;wwwwwwwwwwwwwwwwwwwwww;*$.sbk       ",
"      bbbs.$-;wwwwwwwwwwwwwwwwwwwwww;*$.sbbg      ",
"     bbvbs.$--wwwwwwwwwwwwwwwwwwwwww;*$.sbbbb     ",
"    bbbt21.O@#&&&&&&&&&&&&&&&&&&&&&&#@O.<2ybb5    ",
"    vbb,..................................,bbr    ",
"    bbbfee311111111111111111111111111113eesbb4    ",
"     zbbbbbbbvvvbbbbbbbbbbbbbbbbbbbbbbbbbbbbk     ",
"      abbbbbbbbbbbbbbbbbbbbbbbbbbbbbbbbbbbbu      ",
"                                                  "
};
