/* XPM */
static char *result[] = {
/* columns rows colors chars-per-pixel */
"50 50 138 2 ",
"   c #050301",
".  c #0A0601",
"X  c #0D0903",
"o  c #0F0C09",
"O  c #120B02",
"+  c #100E0A",
"@  c #1D1204",
"#  c #14110C",
"$  c #1A130B",
"%  c #191612",
"&  c #1C1915",
"*  c #1F1C18",
"=  c #221504",
"-  c #261905",
";  c #2B1B06",
":  c #231A0E",
">  c #2B1F0E",
",  c #311F07",
"<  c #352107",
"1  c #382307",
"2  c #32230F",
"3  c #3B2508",
"4  c #3E2808",
"5  c #2E2110",
"6  c #25211C",
"7  c #3C2A10",
"8  c #2A2620",
"9  c #2D2A25",
"0  c #302B25",
"q  c #342F29",
"w  c #35322E",
"e  c #38332C",
"r  c #383531",
"t  c #3C3935",
"y  c #3F3C38",
"u  c #432A09",
"i  c #4D310A",
"p  c #52340B",
"a  c #5D3B0C",
"s  c #432E11",
"d  c #463013",
"f  c #4C3412",
"g  c #513713",
"h  c #573B13",
"j  c #5A3C12",
"k  c #643F0D",
"l  c #423D37",
"z  c #403D39",
"x  c #66420E",
"c  c #6B450E",
"v  c #70470F",
"b  c #72480F",
"n  c #644113",
"m  c #6A4613",
"M  c #754B11",
"N  c #784D11",
"B  c #7E5112",
"V  c #44423D",
"C  c #474541",
"Z  c #4A4743",
"A  c #524F4B",
"S  c #53514D",
"D  c #565452",
"F  c #585652",
"G  c #5B5956",
"H  c #615F5C",
"J  c #656461",
"K  c #696765",
"L  c #767573",
"P  c #7B7B7B",
"I  c #845412",
"U  c #885612",
"Y  c #8D5A13",
"T  c #935D13",
"R  c #9A6215",
"E  c #9A661C",
"W  c #A26716",
"Q  c #A56916",
"!  c #AB6D17",
"~  c #AF7017",
"^  c #B07017",
"/  c #B57318",
"(  c #B97619",
")  c #BD7919",
"_  c #C47D1A",
"`  c #C87F1B",
"'  c #807F7C",
"]  c #CC821B",
"[  c #D1851C",
"{  c #D6881C",
"}  c #DA8B1D",
"|  c #E08F1E",
" . c #E6921F",
".. c #EA961F",
"X. c #ED9720",
"o. c #EE9820",
"O. c #E4982E",
"+. c #F09920",
"@. c #F19D29",
"#. c #F0A12E",
"$. c #F1A231",
"%. c #F2A639",
"&. c #F2A93E",
"*. c #F1AA41",
"=. c #F2AF49",
"-. c #F3B04C",
";. c #F3B554",
":. c #F3B75A",
">. c #F3B95C",
",. c #D4A86A",
"<. c #F4BD64",
"1. c #F4C26D",
"2. c #F5C674",
"3. c #F5C778",
"4. c #F6C97C",
"5. c #888888",
"6. c #948D82",
"7. c #959595",
"8. c #9A9A99",
"9. c #A4A4A4",
"0. c #AAAAA9",
"q. c #B6B6B6",
"w. c gray73",
"e. c #F6CF87",
"r. c #F6D28C",
"t. c #F6D694",
"y. c #F7DB9C",
"u. c #F7DCA0",
"i. c #F8DFA5",
"p. c #F7E0A6",
"a. c #F7E2AA",
"s. c #C3C3C3",
"d. c #CDCDCD",
"f. c #D3D3D3",
"g. c #DADADA",
"h. c #E3E3E3",
"j. c #EEEEEE",
"k. c None",
/* pixels */
"k.k.k.k.k.k.k.k.k.k.k.k.k.k.k.k.k.k.k.  O     .           X   k.k.k.k.k.k.k.k.k.k.k.k.k.k.k.k.k.k.k.",
"k.k.k.k.k.k.k.k.k.k.k.k.k.k.k.k.X   ; b Q [ ..o.b b +.} _ Q x =   = k.k.k.k.k.k.k.k.k.k.k.k.k.k.k.k.",
"k.k.k.k.k.k.k.k.k.k.k.k.k.k.. = U } +.+.+.+.+...b b +.o.+.+.+.+.} } T < k.k.k.k.k.k.k.k.k.k.k.k.k.k.",
"k.k.k.k.k.k.k.k.k.k.k.k.. ; ! ....+.+.+.+...] ( p p ( ] ..+.+.+.+.+.+.+.B . k.k.k.k.k.k.k.k.k.k.k.k.",
"k.k.k.k.k.k.k.k.k.k.. X T ..+.+.+...! c ;   O ; < < ; O   ; c ! ..+.+.+.o.T . . k.k.k.k.k.k.k.k.k.k.",
"k.k.k.k.k.k.k.k.k.X < } +.+.+.} b @ ; b ! } +.+...+.+.+.} ~ c - @ b } +.+...{ 3 X k.k.k.k.k.k.k.k.k.",
"k.k.k.k.k.k.k.k.. c ..+.+. .b X p ) +.+.+.+.+.+.+.+.+.+.+.+.+.+.) p X M  .+.+.o.k . k.k.k.k.k.k.k.k.",
"k.k.k.k.k.k.k.  a +.+.+.( = u ] +.+.+.+.+.+.+.+.+.+.+.+.+.+.+.+.+...] u @ ( +.o.+.a   k.k.k.k.k.k.k.",
"k.k.k.k.k.k.. a X ! +.I X R +.+.+.+.+.+.+.+.+.+.+.+.+.+.+.+.+.+.+.+.+.+.R X U o.! O k . k.k.k.k.k.k.",
"k.k.k.k.k.. c o.! O i = ] +.+.+.+.+.+.+.+.+.+.+.+.+.+.+.+.+.+.+.+.+.+.+.o.] @ i X ! ..c . k.k.k.k.k.",
"k.k.k.k.. 1 ..+.+.i ; } +.+.+.+.+.+.+.+.+.+.+.+.( ~ o.o.+.+.+.+.+.+.+.+.+.+.} ; i +.+.+.< X k.k.k.k.",
"k.k.k.k.X } +.+.I = } +.+.+.+.+.+.+.+.+.+.+.o.m & 6 7 o.+.+.+.+.+.+.+.+.+.+.o.} @ U +...} X k.k.k.k.",
"k.k.k.. T ..+.( X ] +.+.+.+.+.+.+.+.+.+.+.+.o.  f.j.& ) +.+.+.+.+.+.+.+.#.e.@.+.] X / +.+.T . k.k.k.",
"k.k.k.; +.+. .@ R +.+.+.+.+.+.+.+.+.+.+.+.} W   h.j.0 I } +.+.+.+.+.+.+.+.<.#.+.+.R @ ..+.+.- k.k.k.",
"k.k.X ! +.+.b u +.+.+.+.+.+.+.+.+.+.+.| j X e J j.j.P e X j  .o.+.+.+.+.+.+.*.<.+.+.u N +.+.Q X k.k.",
"k.k.= ..+.} X ] +.+.+.+.+.+.+.+.+.o.{ : G g.j.j.j.j.j.j.g.S : } +.+.+.+.+.+.$.p.%.+.] X } +...@ k.k.",
"k.X U +.+.b p +.+.+.+.+.+.+.+.+.+.+.d J j.j.j.f.d.d.f.j.j.j.H u +.+.+.+.+.+.+.<.t.+.+.p b +.+.I X k.",
"k.  } +...O _ +.+.+.+.+.+.+.+.+.+.) # h.j.8.o # & : # # 9.j.h.$ ( +.+.+.+.+.+.+.y.=.+.) @ ..+.}   k.",
"k.; +.+.~ ; +.+.+.+.+.+.+.+.+.+.o.N D j.f.o ( +.+.+.+./ o f.j.K M +.+.+.+.+.+.+.<.e.+.+.- ! +.+.- k.",
"  b +.+.x b +.+.+.+.+.+.+.+.+.+.+.E q.j.7.f +.o.+.+.+.+.f 7.j.5.h +.+.+.+.+.+.+.@.a.@.+.c c +.+.c . ",
"O Q +.+.; ~ +.+.+.+.+.+.+.+.+.+.+.O.g.j.0.5 o.o.+.+.+.+.I r w.t B o.+.+.+.+.+.+...e.;.+.! , +.+.Q O ",
"  ] +.... } +.+.+.+.+.+.+.+.+.+.o.! 6.j.j.w s _ +.+.+.+.X.n : n ..+.+.+.+.+.+.+.+.1.2.+.} . ..+.]   ",
"  ..+.] O ..+.+.+.+.+.+.+.+.+.+.+.+.,.f.j.h.L o f _ o.+.+.+.+.+.+.+.+.+.+.+.+.+.+.-.r.+.+.O ] +. .  ",
". +.+.( ; +.+.+.+.+.+.+.+.+.+.+.+.+.E & s.j.j.h.L o f _ +.+.+.+.+.+.+.+.+.+.+.+.+.&.y.+.+.- ( +...  ",
"  v v p < o.+.+.+.+.+.+.+.+.+.+.+.+.+.Y o K g.j.j.h.L o f ] X.o.+.+.+.+.+.+.+.+.+.$.a.+...< p v b . ",
"  v b p < o.+.+.+.+.+.+.+.+.+.+.+.+.+.+.[ j o K g.j.j.h.L o B o.+.+.+.+.+.+.+.+.+.#.a.+.+.< p v b   ",
". ..+.( = +.+.+.+.+.+.+.+.+.+.+.+.+.+.+.o.o.] j X K g.j.j.d.* U +.+.+.+.+.+.+.+.+.%.u.+.+.; ( +.+.  ",
"  ..+.] O +.+.+.+.+.+.+.+.+.+.+.+.+.+.+.+.+.+.+.] j o J h.j.s.o } +.+.+.+.+.+.+.+.-.r.+...O [ +...  ",
"  [ +...  } o.+.+.+.+.+.+.+.+.+.+. .f $ h X.o.o.+.+.] g 9 j.j.y Y o.o.+.+.+.+.+.+.1.2.+.} . ..+.]   ",
"O Q +.+.; ! +.+.+.+.+.+.+.+.+.+.+.B V d.y B o.o.+.+.+.o.5 0.j.L k +.+.+.+.+.+.+.+.e.;.+.! ; +.+.W X ",
"  b +.+.c c +.+.+.+.+.+.+.+.+.+.o.h 5.j.8.f +.+.+.+.o.+.d 8.j.P n +.+.+.+.+.+.+.@.a.#.+.c c +.+.v   ",
"k.; +.+.! @ o.+.+.+.+.+.+.+.+.+.+.N H j.f.o ! o.+.+.o.Q o g.j.G I +.+.+.+.+.+.+.>.e.+.+.= ^ +.+.- k.",
"k.  } ....@ ( +.+.+.+.+.+.+.+.+.+._ + h.j.0.&   + o . % 0.j.g.o ] +.+.+.+.+.+.+.y.-.+.( @ X.+.}   k.",
"k.X U +.+.b i ..+.+.+.+.+.+.+.+.+.+.f S j.j.j.g.d.f.g.j.j.j.Z f +.+.+.+.+.+.+.:.t.+...p b +.X.I X k.",
"k.k.@ +.+.} . _ +.+.+.+.+.+.+.+.+.+.| 5 C d.j.j.j.j.j.j.d.y > | +.+.+.+.+.+.@.i.*.+.` X } +.o.@ k.k.",
"k.k.. ! +.+.v u +.+.+.+.+.+.+.+.+.+.o.X.M o 6 A j.j.L 6 X n  .+.+.+.+.+.o.+.t.2.+.+.4 N +.+.Q X k.k.",
"k.k.k.; X.o. .@ T X.+.+.@.+.+.+.+.+.+.+.+. .^   j.j.9 Y X.X.+.+.+.+.+.+.+.4.t.X.+.T =  .+...- k.k.k.",
"k.k.k.. Y +.+.( X ] +.+.e.4.+.+.+.+.+.+.+.X.X.  h.j.6 ( X.X.+.+.+.+.+.+.4.t.@.o.` O ( +.+.Y X k.k.k.",
"k.k.k.k.X { +.+.I @ { +.@.r.r.$.+.+.+.+.+.+.o.d t G $ X.+.+.+.+.+.+.$.r.r.@.+.} @ U +.+.{ X k.k.k.k.",
"k.k.k.k.. < ..+.X.i ; } +.+.2.i.:.+.+.+.+.+.X.X.U M } +.+.+.+.+.+.>.a.1.+.+.} ; i +.+...< . k.k.k.k.",
"k.k.k.k.k.X c +.! X i @ ] o.+.*.t.y.:.@.+.+.+.+.+.+.+.+.+.+.#.>.y.t.*.+...] @ i O ! +.x X k.k.k.k.k.",
"k.k.k.k.k.k.. a O ! +.U X T o.+.+.-.r.a.e.<.-.%.$.$.%.-.1.e.a.e.=.+.+.+.T X U +.! O a . k.k.k.k.k.k.",
"k.k.k.k.k.k.k.  a o.+.+.( = u ..+.+.+.$.;.3.t.y.a.a.y.r.2.;.#.+.+.+.] 4 - ( +.+...a   k.k.k.k.k.k.k.",
"k.k.k.k.k.k.k.k.  c o.o... .U  .T ..+...+.+.+.+.+.+.+.+.+.+.+.+.( p X b ..+.+...c . k.k.k.k.k.k.k.k.",
"k.k.k.k.k.k.k.k.k.X < } +.+.+.+.R o.p c Q } +...+.+.+.+.} ! c = @ M } +.+.+.} < X k.k.k.k.k.k.k.k.k.",
"k.k.k.k.k.k.k.k.k.k.. . T ..+.+.+.+.( c 1   . @ < < - O   , c ^ X.X.+.+...Y . . k.k.k.k.k.k.k.k.k.k.",
"k.k.k.k.k.k.k.k.k.k.k.k.X - Q +...+.+.+.+...} _ p p ( ] ..+.+.+.+.+...! = X k.k.k.k.k.k.k.k.k.k.k.k.",
"k.k.k.k.k.k.k.k.k.k.k.k.k.k.X @ U } +.+.+.+.+.+.b b +.+.+.+.+.o.} I @ . k.k.k.k.k.k.k.k.k.k.k.k.k.k.",
"k.k.k.k.k.k.k.k.k.k.k.k.k.k.k.k.X   - c Q ] ..+.v b o...] W c ;   . k.k.k.k.k.k.k.k.k.k.k.k.k.k.k.k.",
"k.k.k.k.k.k.k.k.k.k.k.k.k.k.k.k.k.k.k.  O       .       . X   k.k.k.k.k.k.k.k.k.k.k.k.k.k.k.k.k.k.k."
};
