/* XPM */
static char *result[] = {
/* columns rows colors chars-per-pixel */
"50 50 218 2 ",
"   c black",
".  c #000100",
"X  c #070B02",
"o  c #070C02",
"O  c #0A1103",
"+  c #0B1203",
"@  c #0B1303",
"#  c #0D1604",
"$  c #0E1704",
"%  c #161616",
"&  c gray9",
"*  c gray15",
"=  c #272727",
"-  c #563206",
";  c #27420B",
":  c #28430B",
">  c #29450C",
",  c #2A460C",
"<  c #30500E",
"1  c #30510E",
"2  c #375D10",
"3  c #3E6812",
"4  c #3E6912",
"5  c #3F6912",
"6  c #406B12",
"7  c #457514",
"8  c #477714",
"9  c #477716",
"0  c #477717",
"q  c #4A7C16",
"w  c #4B7D16",
"e  c #6C4F3F",
"r  c #6D573D",
"t  c #6D593D",
"y  c #6D5A3C",
"u  c #4B702F",
"i  c #4C732F",
"p  c #4F792C",
"a  c #4F792D",
"s  c #476930",
"d  c #476931",
"f  c #476A30",
"g  c #476A31",
"h  c #486930",
"j  c #486931",
"k  c #486A30",
"l  c #496B30",
"z  c #486A31",
"x  c #496B31",
"c  c #486D31",
"v  c #496D31",
"b  c #4A6E30",
"n  c #496D32",
"m  c #517A30",
"M  c #517B30",
"N  c #6B7E30",
"B  c #6C7E30",
"V  c #6C4B40",
"C  c #6D4B40",
"Z  c #6C4B41",
"A  c #6D4B41",
"S  c #6C4C40",
"D  c #6D4C40",
"F  c #6D4C41",
"G  c #6D4D41",
"H  c #6C4E40",
"J  c #6C4F40",
"K  c gray42",
"L  c #6C6C6C",
"P  c #747474",
"I  c gray46",
"U  c #FF3D00",
"Y  c #B85007",
"T  c #B17B10",
"R  c #DB4E05",
"E  c #EB4D04",
"W  c #4E8316",
"Q  c #4F8416",
"!  c #508617",
"~  c #518717",
"^  c #528A17",
"/  c #538C18",
"(  c #548E18",
")  c #558E18",
"_  c #569018",
"`  c #569118",
"'  c #5B9A1A",
"]  c #729919",
"[  c #739919",
"{  c #5FA01B",
"}  c #60A11B",
"|  c #63A51C",
" . c #63A61C",
".. c #65A91C",
"X. c #65AA1D",
"o. c #67AC1D",
"O. c #67AC1F",
"+. c #6AAB1F",
"@. c #68AE1D",
"#. c #68AF1D",
"$. c #6AAC1F",
"%. c #69AF1E",
"&. c #6EAF1D",
"*. c #69B11D",
"=. c #6AB01D",
"-. c #6AB11D",
";. c #69B21D",
":. c #6AB21D",
">. c #68B01E",
",. c #69B11E",
"<. c #6AB01E",
"1. c #6AB11E",
"2. c #6AB11F",
"3. c #69B21E",
"4. c #6AB21E",
"5. c #6BB31F",
"6. c #6DB31F",
"7. c #52802B",
"8. c #53832A",
"9. c #53822B",
"0. c #54822A",
"q. c #578928",
"w. c #568829",
"e. c #588C28",
"r. c #5B8E2D",
"t. c #5A8E2E",
"y. c #5C8F2E",
"u. c #5C8E2F",
"i. c #5E9924",
"p. c #5E9A24",
"a. c #5E922F",
"s. c #6B8F2B",
"d. c #609D23",
"f. c #609F23",
"g. c #609E24",
"h. c #659E31",
"j. c #669E32",
"k. c #689F38",
"l. c #63A222",
"z. c #64A522",
"x. c #64A622",
"c. c #6AA522",
"v. c #6AA423",
"b. c #66A920",
"n. c #6AA921",
"m. c #6AAA21",
"M. c #6AAC20",
"N. c #69AF22",
"B. c #6AAF22",
"V. c #69AC26",
"C. c #69AC27",
"Z. c #6AAD26",
"A. c #69A72D",
"S. c #6AA72D",
"D. c #69A52F",
"F. c #68A72E",
"G. c #69A82C",
"H. c #6AB120",
"J. c #7AB927",
"K. c #67A233",
"L. c #67A034",
"P. c #68A331",
"I. c #68A232",
"U. c #68A332",
"Y. c #68A233",
"T. c #69A630",
"R. c #68A035",
"E. c #68A135",
"W. c #68A235",
"Q. c #68A036",
"!. c #68A037",
"~. c #79AB31",
"^. c #7AAB33",
"/. c #7BAB33",
"(. c #7CAD31",
"). c #978E15",
"_. c #968F15",
"`. c #85B429",
"'. c #84B729",
"]. c #8AB42F",
"[. c #9BBF2C",
"{. c #89B330",
"}. c #94C434",
"|. c #95C535",
" X c #A5C32B",
".X c #A3C02F",
"XX c #A2C12F",
"oX c #AEC42F",
"OX c #AAC230",
"+X c #A2CB3C",
"@X c #A6CC3E",
"#X c #B0C631",
"$X c #BDC932",
"%X c #BEC933",
"&X c #BFCA32",
"*X c #B1CB39",
"=X c #C0CA33",
"-X c #B3D245",
";X c #B4D346",
":X c #BDD345",
">X c #BED445",
",X c #BCD64A",
"<X c #BDD74B",
"1X c #BFD84C",
"2X c #C1D94D",
"3X c #C9DB4F",
"4X c #C8DB50",
"5X c #C9DC50",
"6X c #CDDC54",
"7X c #D2E056",
"8X c #D3E056",
"9X c #D4E157",
"0X c #98A58A",
"qX c #99A68B",
"wX c #A0AC93",
"eX c #A0AC94",
"rX c white",
"tX c None",
/* pixels */
"tXtXtXtXtXtXtXtXtXtXtXtXtXtXtXtXtXtXtXtXtXtXtXtXtXtXtXtXtXtXtXtXtXtXtXtXtXtXtXtXtXtXtXtXtXtXtXtXtXtX",
"tXtXtXtXtXtXtXtXtXtXtXtXtXtXtXtXtXtXtX-.4.,.,.tXtXtXtX4.,.4.-.tXtXtXtXtXtXtXtXtXtXtXtXtXtXtXtXtXtXtX",
"tXtXtXtXtXtXtXV C tXtXtXtXtXtXtXtXtXtXtX4.4.4.,.tXtX4.4.4.4.tXtXtXtXtXtXtXtXtXtXtXF C tXtXtXtXtXtXtX",
"tXtXtXtXtXtXtXD F V tXtXtXtXtXtXtXtXtXtX1.4.4.4.tXtX4.4.4.1.tXtXtXtXtXtXtXtXtXtXC F A tXtXtXtXtXtXtX",
"tXtXtXtXtXtXtXtXF F Z tXtXtXtX:.4.4.,.tX,.4.4.4.*.*.4.4.4.,.tX,.4.4.:.tXtXtXtXC F F tXtXtXtXtXtXtXtX",
"tXtXtXtXtXtXtXtXF F F A tXtXtXtX4.4.4.4.1.4.4.4.4.4.4.4.4.1.4.4.4.4.tXtXtXtXD F F F tXtXtXtXtXtXtXtX",
"tXtXtXtXtXtXtXtXS F F F J tXtXtX1.4.4.4.4.4.4.4.4.4.4.4.4.4.4.4.4.1.tXtXtXe F F F D tXtXtXtXtXtXtXtX",
"tXtXtXtXtXtXtXtXC F G s.2.4.4.$.=.4.4.4.4.4.4.4.4.4.4.4.4.4.4.4.4.=.$.4.4.2.s.G F C tXtXtXtXtXtXtXtX",
"tXtXtXtXtXtXtXtXtXF F r v.4.4.4.4.4.4.4.4.4.4.4.4.4.4.4.4.4.4.4.4.4.4.4.4.c.t F F tXtXtXtXtXtXtXtXtX",
"tXtXtXtXtXtXtXtXtXZ F F y M.4.4.4.4.4.4.4.4.4.4.4.4.4.4.4.4.4.4.4.4.4.4.M.y F F C tXtXtXtXtXtXtXtXtX",
"tXtXtXtXtXtXtXtXtXtXH N m.4.4.4.4.4.4.4.4.4.4.4.4.4.4.4.4.4.4.4.4.4.4.4.4.n.B H tXtXtXtXtXtXtXtXtXtX",
"tXtXtXtXtXtXtXtXtXtX+.4.4.4.4.4.4.4.4.4.4.4.4.4.4.4.4.4.4.4.4.4.4.4.4.4.4.4.4.+.tXtXtXtXtXtXtXtXtXtX",
"tXtXtXtXtXtXtXtXtX;.4.4.4.4.4.4.4.4.4.4.4.4.4.4.4.4.4.4.4.4.4.4.4.4.4.4.4.4.4.4.;.tXtXtXtXtXtXtXtXtX",
"tXtXtXtXtXtXtXtX3.4.4.4.4.4.4.4.0 eX0Xw 4.4.4.4.4.4.4.4.4.4.q qXwX9 4.4.4.4.4.4.4.3.tXtXtXtXtXtXtXtX",
"tXtXtXtXtXtXtXtX4.4.4.4.4.4.4.> = rXrX% 1 4.4.4.4.4.4.4.4.< & rXrX* , 4.4.4.4.4.4.4.tXtXtXtXtXtXtXtX",
"tXtXtXtXtXtXtX1.:.;.4.4.4.4.!     I K   . ` 4.4.4.4.4.4._ .   L P     ~ 4.4.4.4.;.:.1.tXtXtXtXtXtXtX",
"tXtXtXtXtXtXtXtXtX4.4.4.4.4.2             3 4.4.4.4.4.4.3             2 4.4.4.4.-.tXtXtXtXtXtXtXtXtX",
"tXtXtXtXtXtXtXtX:.4.4.4.4.4.5             8 4.4.4.4.4.4.7             6 4.4.4.4.4.,.tXtXtXtXtXtXtXtX",
"tXtXtXtXtXtXtXtX4.4.4.4.4.4.{ X         O  .4.4.4.4.4.4.| O         o } 4.4.4.4.4.4.tXtXtXtXtXtXtXtX",
"tXtXtXtXtXtXtX*.4.4.4.4.4.4.4.W O     $ ^ 4.4.4.4.4.4.4.4.^ #     + Q 4.4.4.4.4.4.4.,.tXtXtXtXtXtXtX",
"tXtXtXtXtXtXtX4.4.4.4.4.4.4.4.4.o./ ( #.4.4.4.4.4.4.4.4.4.4.@.( / o.4.4.4.4.4.4.4.4.4.tXtXtXtXtXtXtX",
"tXtXtXtXtXtXtX4.4.b.4.4.4.4.4.4.4.4.4.4.4.4.4.4.4.4.4.4.4.4.4.4.4.4.4.4.4.4.4.4.b.4.4.tXtXtXtXtXtXtX",
"tXtXtXtXtXtXi.O.8.x.4.4.4.4.4.4.4.4.4.4.4.4.4.4.4.4.4.4.4.4.4.4.4.4.4.4.4.4.4.4.z.0.O.p.tXtXtXtXtXtX",
"tXtXtXtXtXk w.u 0.4.4.4.4.4.4.4.4.4.4.4.' ) ) ) ) ) ) ) ) ' 4.4.4.4.4.4.4.4.4.4.4.9.u w.h tXtXtXtXtX",
"tXtXtXtXs z z z f.4.4.4.4.4.4.4.4.4.4.4.;                 : 4.4.4.4.4.4.4.4.4.4.4.g.z z z f tXtXtXtX",
"tXtXtXh z z z b <.4.4.4.4.4.4.4.4.4.4.4.4                 5 4.4.4.4.4.4.4.4.4.4.4.,.b z z z g tXtXtX",
"tXtXg z z z z 7.4.l.4.4.4.4.4.4.4.4.4.4...@ - Y R R Y - @ X.4.4.4.4.4.4.4.4.4.4.l.4.7.z z z z h tXtX",
"tXtXz z z z z e.q.d.4.4.4.4.4.4.4.4.4.4.4.[ E U U U U E ] 4.4.4.4.4.4.4.4.4.4.4.d.q.e.z z z z z tXtX",
"tXj z z z z z i x >.4.4.4.4.4.4.4.4.4.4.4.4.&.).T T _.&.4.4.4.4.4.4.4.4.4.4.4.4.%.l i z z z z z s tX",
"tXs z z z z z z p 4.4.4.4.4.4.4.4.4.4.4.4.4.4.4.4.4.4.4.4.4.4.4.4.4.4.4.4.4.4.4.4.a z z z z z z f tX",
"tXz z z z z z g tX4.4.4.4.4.4.4.4.4.4.4.4.4.4.4.4.4.4.4.4.4.4.4.4.4.4.4.4.4.4.4.4.tXg z z z z z z tX",
"tXz z z z z z f tXtXB.4.4.4.4.4.4.4.4.4.4.J.+X<X5X4X,X+XJ.4.4.4.4.4.4.4.4.4.4.N.tXtXd z z z z z z tX",
"j z z z z z z tXtXtXI.4.4.4.4.4.4.4.4.6.@X8X9X9X9X9X9X9X8X@X6.4.4.4.4.4.4.4.4.Y.tXtXtXz z z z z z k ",
"g z z z z z z tXtXtXU.A.4.4.4.4.4.4.5.;X9X9X9X9X9X9X9X9X9X9X-X5.4.4.4.4.4.4.A.P.tXtXtXz z z z z z j ",
"tXz z z z z h tXtXtXF.k.G.4.4.4.4.4.|.9X9X9X9X9X9X9X9X9X9X9X9X}.4.4.4.4.4.G.k.S.tXtXtXh z z z z z tX",
"tXz z z z z tXtXtXtXtXY.k.D.H.4.4.4.2X9X9X9X9X9X9X9X9X9X9X9X9X1X4.4.4.H.T.k.K.tXtXtXtXtXz z z z h tX",
"tXtXtXh h tXtXtXtXtXtXtXQ.k.W.Z.4.5.7X9X9X9X9X9X9X9X9X9X9X9X9X7X5.4.V.E.k.Q.tXtXtXtXtXtXtXh h tXtXtX",
"tXtXtXtXtXtXtXtXtXtXtXtXtX!.k.k.U.C.6X9X9X9X9X9X9X9X9X9X9X9X9X6XC.U.k.k.!.tXtXtXtXtXtXtXtXtXtXtXtXtX",
"tXtXtXtXtXtXtXtXtXtXtXtXtXt.!.k.k.k..X#X*X>X3X9X9X9X9X3X:X*X#XXXk.k.k.!.r.tXtXtXtXtXtXtXtXtXtXtXtXtX",
"tXtXtXtXtXtXtXtXtXtXtXtXtXh M L.k.k.^.&X=X=X=X=X$X$X=X=X=X=X%X/.k.k.L.m h tXtXtXtXtXtXtXtXtXtXtXtXtX",
"tXtXtXtXtXtXtXtXtXtXtXtXtXh z c a.Q.k.].&X=X=X=X=X=X=X=X=X&X{.k.R.a.v z h tXtXtXtXtXtXtXtXtXtXtXtXtX",
"tXtXtXtXtXtXtXtXtXtXtXtXtXh z z z n u.j.(.oX=X=X=X=X=X=XOX~.h.y.n z z z h tXtXtXtXtXtXtXtXtXtXtXtXtX",
"tXtXtXtXtXtXtXtXtXtXtXtXtXh z z z z z z tXtX`.[. X X[.'.tXtXz z z z z z h tXtXtXtXtXtXtXtXtXtXtXtXtX",
"tXtXtXtXtXtXtXtXtXtXtXtXtXh z z z z z z tXtXtXtXtXtXtXtXtXtXz z z z z z h tXtXtXtXtXtXtXtXtXtXtXtXtX",
"tXtXtXtXtXtXtXtXtXtXtXtXtXh z z z z z z tXtXtXtXtXtXtXtXtXtXz z z z z z h tXtXtXtXtXtXtXtXtXtXtXtXtX",
"tXtXtXtXtXtXtXtXtXtXtXtXtXd z z z z z z tXtXtXtXtXtXtXtXtXtXz z z z z z h tXtXtXtXtXtXtXtXtXtXtXtXtX",
"tXtXtXtXtXtXtXtXtXtXtXtXtXtXz z z z z d tXtXtXtXtXtXtXtXtXtXz z z z z z tXtXtXtXtXtXtXtXtXtXtXtXtXtX",
"tXtXtXtXtXtXtXtXtXtXtXtXtXtXtXf z z s tXtXtXtXtXtXtXtXtXtXtXtXs z z f tXtXtXtXtXtXtXtXtXtXtXtXtXtXtX",
"tXtXtXtXtXtXtXtXtXtXtXtXtXtXtXtXtXtXtXtXtXtXtXtXtXtXtXtXtXtXtXtXtXtXtXtXtXtXtXtXtXtXtXtXtXtXtXtXtXtX",
"tXtXtXtXtXtXtXtXtXtXtXtXtXtXtXtXtXtXtXtXtXtXtXtXtXtXtXtXtXtXtXtXtXtXtXtXtXtXtXtXtXtXtXtXtXtXtXtXtXtX"
};
