/* XPM */
static char *_3e6f406dfe340b5c50cdd5123b1586cSUEN9qRcRUUdZrfI[] = {
/* columns rows colors chars-per-pixel */
"50 50 39 1 ",
"  c #769AC4",
". c #86A6CB",
"X c #88A8CB",
"o c #8BAACC",
"O c #94B1D0",
"+ c #96B2D1",
"@ c #98B4D1",
"# c #9BB6D4",
"$ c #9FBAD5",
"% c #A4BCD6",
"& c #A7BFD8",
"* c #A8BFD9",
"= c #AAC0DA",
"- c #AAC1DA",
"; c #B3C7DD",
": c #B4C9DE",
"> c #BCCDE0",
", c #BCCDE1",
"< c #BDCEE1",
"1 c #BFD0E3",
"2 c #C1D1E3",
"3 c #C3D2E3",
"4 c #C4D3E3",
"5 c #C3D2E4",
"6 c #C2D3E4",
"7 c #C9D8E6",
"8 c #CEDAE8",
"9 c #D0DCEA",
"0 c #D3DDEA",
"q c #D3DFEA",
"w c #D3E0EB",
"e c #D5E0EB",
"r c #D8E2EB",
"t c #D9E3EC",
"y c #DAE4EE",
"u c #DCE5EE",
"i c #DEE6EF",
"p c #E0E8F0",
"a c #E1E9F0",
/* pixels */
"        X>                    9                   ",
"        X>                    9                   ",
"        X>                    9                   ",
"        X>                    9                   ",
"        X>                    9                   ",
"        X>                    9                   ",
"        X>                    9                   ",
"        X>                    9                   ",
"XXXXXXXX@7@@@@@@@@@%$@@@@@@@@@t@@@@@@@@@#XXXXX..Xo",
">>>>>>>>>2222222222a22222222224244422222i2,<>>>,:2",
"                   9                    >.        ",
"                   9                    ,X        ",
"                   9                    ,X        ",
"                   9                    ,X        ",
"                   9                    :X        ",
"                   9                    >X        ",
"                   9                    ,.        ",
"                   9                    ,.        ",
"                   9                    >.        ",
"888888889ayttttytttuytytytytytayttttttytt980888088",
"        X2                    8                   ",
"        X:                    9                   ",
"        o2                    9                   ",
"        X:                    9                   ",
"        X>                    9                   ",
"        X>                    9                   ",
"        X>                    9                   ",
"        X>                    9                   ",
"        .>                    0                   ",
"<<2::4<<2ie0qqw99w9yu90q000090a00qq00qqqw2>>>>2>,,",
"X.....XX..........XO2.................X.5OX.......",
"                   .2                   <X        ",
"                   .,                   ,.        ",
"                   .,                   :.        ",
"                   .,                   1X        ",
"                   .,                   >.        ",
"                   .>                   :.        ",
"                   .>                   6.        ",
"                   .>                   :o        ",
"#########2*2*<::::,,9,:>:::::<2,::::::::y-#####$#%",
"********:0**;***==========****y&&-=---%----%-%-=&&",
"        .<                    0                   ",
"        .:                    8                   ",
"        .2                    0                   ",
"        o2                    0                   ",
"        o:                    0                   ",
"        .:                    0                   ",
"        o<                    8                   ",
"        o:                    0                   ",
"        o<                    0                   "
};
