/* XPM */
static char *f450615eb6124283d34b808235c62dfe5xKXlGycbgaXUwj9[] = {
/* columns rows colors chars-per-pixel */
"50 50 158 2 ",
"   c None",
".  c #020720",
"X  c #0F1130",
"o  c #101230",
"O  c #17193B",
"+  c #1A193C",
"@  c #2E202B",
"#  c #3E2930",
"$  c #322539",
"%  c #3F2C3C",
"&  c #5E3C38",
"*  c #1F1F45",
"=  c #252340",
"-  c #272444",
";  c #342942",
":  c #403246",
">  c #453C6B",
",  c #40396E",
"<  c #413B6E",
"1  c #413A6F",
"2  c #413B6F",
"3  c #423A6F",
"4  c #473D6E",
"5  c #463D6F",
"6  c #473D6F",
"7  c #473E6F",
"8  c #423B70",
"9  c #453C70",
"0  c #453D71",
"q  c #473F70",
"w  c #473F72",
"e  c #484174",
"r  c #494375",
"t  c #4A4475",
"y  c #4A4476",
"u  c #514572",
"i  c #564872",
"p  c #594A72",
"a  c #5E4D74",
"s  c #7B5464",
"d  c #625174",
"f  c #665374",
"g  c #6F5976",
"h  c #745C76",
"j  c #9E655F",
"k  c #A0675E",
"l  c #B5705B",
"z  c #B7715B",
"x  c #8A5C62",
"c  c #8D5D61",
"v  c #9F6861",
"b  c #876878",
"n  c #8B6B79",
"m  c #906E79",
"M  c #926F7A",
"N  c #94707A",
"B  c #99737B",
"V  c #9E777B",
"C  c #A66C60",
"Z  c #A27A7B",
"A  c #A1797C",
"S  c #A67D7C",
"D  c #A97E7D",
"F  c #AA7F7D",
"G  c #D47F56",
"H  c #B9897F",
"J  c #5A5481",
"K  c #5E5783",
"L  c #625D87",
"P  c #66618A",
"I  c #706A91",
"U  c #706B92",
"Y  c #736E94",
"T  c #767296",
"R  c #847FA0",
"E  c gray59",
"W  c #BD8C80",
"Q  c #BF8D80",
"!  c #8783A3",
"~  c #8A86A5",
"^  c #8C88A6",
"/  c #8C88A7",
"(  c #918DAA",
")  c #928EAB",
"_  c #928FAB",
"`  c #9592AD",
"'  c #9F9CB4",
"]  c #A29FB7",
"[  c #A0A0A0",
"{  c gray63",
"}  c #AAAAAA",
"|  c gray67",
" . c #A6A3B9",
".. c #B4B4B4",
"X. c #C28F80",
"o. c #C69181",
"O. c #C99381",
"+. c #CC9581",
"@. c #CE9782",
"#. c #D49A83",
"$. c #D89E83",
"%. c #DAA38C",
"&. c #DEA68D",
"*. c #ECAA86",
"=. c #EFAC86",
"-. c #F2AF87",
";. c #F5B087",
":. c #F5B188",
">. c #F6B188",
",. c #F8B288",
"<. c #F9B388",
"1. c #FCB589",
"2. c #FFB789",
"3. c #F2B491",
"4. c #AFACC0",
"5. c #B4B1C4",
"6. c #B6B4C6",
"7. c #B7B5C6",
"8. c #B8B6C7",
"9. c #BCB9CA",
"0. c #C0BECD",
"q. c #C3C3C3",
"w. c #C6C6C6",
"e. c #C2C0CE",
"r. c #C4C2CF",
"t. c #CECECE",
"y. c #C4C3D0",
"u. c #CAC9D5",
"i. c #CDCBD6",
"p. c #CFCDD8",
"a. c gray83",
"s. c gray84",
"d. c gray85",
"f. c gray86",
"g. c gray87",
"h. c #DDDCE3",
"j. c gray89",
"k. c #E1E0E5",
"l. c gray90",
"z. c #E6E6E6",
"x. c #E7E7E7",
"c. c #E4E3E8",
"v. c #E5E4E8",
"b. c #E6E5E9",
"n. c #E8E7EA",
"m. c gray91",
"M. c #E9E9E9",
"N. c #EAEAEA",
"B. c #EBEAED",
"V. c #ECECED",
"C. c gray93",
"Z. c #EEEDEF",
"A. c #EEEEEE",
"S. c #EFEFEF",
"D. c #EFEFF0",
"F. c gray94",
"G. c #F1F1F1",
"H. c gray95",
/* pixels */
"                                                    H.H.H.H.C.                                      ",
"                                            H.H.H.H.H.H.H.H.H.g.                                    ",
"                                    H.H.H.H.H.H.H.H.h.4.R e.H.H.                                    ",
"                            H.H.H.H.H.H.H.H.v.8.~ J , , , ~ H.H.                                    ",
"                H.H.H.H.H.H.H.H.H.H.B.0.) L , , e h S $.r ~ H.H.C.H.H.H.H.H.H.D.                    ",
"              H.H.H.H.H.H.H.F.p.' I 0 , , f B +.<.2.2.2.r ~ H.H.H.H.H.H.H.H.H.H.M.                  ",
"            H.H.c.8.6.6.] Y t , , d N o.>.2.2.2.2.2.2.2.r I 6.6.5.7.8.5.7.5.u.H.H.}                 ",
"            H.H.) , , , , p n H =.2.2.2.2.2.2.2.2.2.2.2.u , , , , , 8 , , 8 9 D.H.w.                ",
"            H.H.^ 4 z z &.2.2.2.2.2.2.2.2.2.2.2.2.2.2.2.v v j l z z z z z s , Z.H.w.                ",
"            H.H.^ 4 G G 3.2.2.2.2.2.2.2.2.2.2.2.2.2.2.2.k k l G G G G G G x , Z.H.w.                ",
"            H.H./ 4 G G 3.2.2.2.2.2.2.2.2.2.2.2.2.2.2.2.; ; $ @ @ @ @ & G x , Z.H.w.                ",
"            H.H./ 4 G G 3.2.2.2.2.2.2.2.2.2.2.2.2.2.2.2.- O X . . . . # G x , Z.H.w.                ",
"            H.H./ 4 G G 3.2.2.2.2.2.2.2.2.2.2.2.2.2.2.2.= O o . . . . # G x , Z.H.w.                ",
"            H.H./ 4 G G 3.2.2.2.2.2.2.2.2.2.2.2.2.2.2.2.= + o . . . . # G x , Z.H.w.                ",
"            H.H./ 4 G G 3.2.2.2.2.2.2.2.2.2.2.2.2.2.2.2.$ O o . . . . # G x , D.H.w.                ",
"            H.H./ > G G 3.2.2.2.2.2.2.2.2.2.2.2.2.2.2.2.* O o . . . . # G x , D.H.w.                ",
"            H.H.^ 4 G G 3.2.2.2.2.2.2.2.2.2.2.2.2.2.2.2.$ O X . . . . # G x , Z.D.w.                ",
"            H.H.^ 4 G G 3.2.2.2.2.2.2.2.2.2.2.2.2.2.2.2.* O o . . . . # G x , Z.H.w.                ",
"            H.H.^ 4 G G 3.2.2.2.2.2.2.2.2.2.2.2.2.2.2.2.$ O o . . . . # G x , Z.H.w.                ",
"            H.H.^ 4 G G 3.2.2.2.2.2.2.2.2.2.2.2.2.2.2.2.* O o . . . . # G x , Z.H.w.                ",
"            H.H.^ 4 G G 3.2.2.2.2.2.2.2.2.2.2.2.2.2.2.2.* O X . . . . # G x , Z.H.w.                ",
"            H.H.^ 4 G G 3.2.2.2.2.2.2.2.2.2.2.o.H :.2.2.$ O o . . . . # G x , Z.H.w.                ",
"            H.H.^ 4 G G 3.2.2.2.2.2.2.2.2.2.1.e , V 2.2.= O o . . . . # G x , Z.H.w.                ",
"            H.H.^ 4 G G 3.2.2.2.2.2.2.2.2.2.:.< , B 2.2.= O o . . . . # G x , Z.H.w.                ",
"            H.H.^ 4 G G 3.2.2.2.2.2.2.2.2.2.:.< , V 2.2.= O X . . . . # G x , Z.H.w.                ",
"            H.H.^ > G G 3.2.2.2.2.2.2.2.2.2.:.< , V 2.2.= O o . . . . # G x , Z.H.w.                ",
"            H.H.^ > G G 3.2.2.2.2.2.2.2.2.2.1.e , H -.1.= O o . . . . # G x , D.H.w.                ",
"            H.H.^ e G G 3.2.2.2.2.2.2.2.2.2.2.@.H *.<.1.= O o . . . . # G x , D.H.w.                ",
"            H.H.^ > G G :.2.2.2.2.2.2.2.2.2.2.2.2.2.2.2.= O o . . . . # G x , C.H.w.                ",
"            H.H./ 4 G G 3.2.2.2.2.2.2.2.2.2.2.2.2.2.2.2.= O o . . . . # G x , D.H.w.                ",
"            H.H./ 4 G G 3.2.2.2.2.2.2.2.2.2.2.2.2.2.2.2.= O o . . . . # G x , D.H.w.                ",
"            H.H./ e G G 3.2.2.2.2.2.2.2.2.2.2.2.2.2.2.2.= O o . . . . # G x , C.H.w.                ",
"            H.H.^ 4 G G 3.2.2.2.2.2.2.2.2.2.2.2.2.2.2.2.= O o . . . . # G x , D.D.w.                ",
"            H.H.^ 4 G G 3.2.2.2.2.2.2.2.2.2.2.2.2.2.2.2.= O o . . . . # G x , B.H.w.                ",
"            H.H.^ 4 G G 3.2.2.2.2.2.2.2.2.2.2.2.2.2.2.2.= O X . . . . # G x , D.H.w.                ",
"            H.H.^ 4 G G 3.2.2.2.2.2.2.2.2.2.2.2.2.2.2.2.= O o . . . . # G x , A.H.w.                ",
"            H.H.^ 4 G G 3.2.2.2.2.2.2.2.2.2.2.2.2.2.2.2.$ O X . . . . # G x , D.H.w.                ",
"            H.H.^ 4 G G 3.2.2.2.2.2.2.2.2.2.2.2.2.2.2.2.* O X . . . . # G x , A.H.w.                ",
"            H.H.^ 4 G G 3.2.2.2.2.2.2.2.2.2.2.2.2.2.2.2.$ O X . . . . # G x < S.H.w.                ",
"            H.H.^ 4 G G 3.2.2.2.2.2.2.2.2.2.2.2.2.2.2.2.* O X . . . . # G x < D.H.w.                ",
"            H.H.^ 4 z z %.2.2.2.2.2.2.2.2.2.2.2.2.2.2.2.- * + X X X X % z s , C.H.w.                ",
"            H.H.` , , , , i b W *.2.2.2.2.2.2.2.2.2.2.2.> , , , , , , , , , 0 D.H.q.                ",
"            H.H.v.6.6.6. .T r , , p n X.-.2.2.2.2.2.2.2.r U 6.6.6.6.6.6.6.6.i.H.H.[                 ",
"              H.H.H.H.H.H.H.D.p.] I t , , f M H ;.2.2.2.r / H.H.H.H.H.H.H.H.H.H.z.                  ",
"                g.z.z.M.D.H.H.H.H.H.C.y.` P , , 0 g A #.r ~ H.H.M.z.v.m.m.v.z.w.                    ",
"                          E w.z.H.H.H.H.H.H.M.9.^ K , , , ~ H.H.                                    ",
"                                  [ t.M.H.H.H.H.H.H.k.5.! e.H.H.                                    ",
"                                          | s.C.H.H.H.H.H.H.H.s.                                    ",
"                                                  ..d.S.H.H.d.                                      ",
"                                                                                                    "
};
