/* XPM */
static char *result[] = {
/* columns rows colors chars-per-pixel */
"50 50 20 1 ",
"  c #312B92",
". c #413B99",
"X c #413C99",
"o c #423D9A",
"O c #433E9A",
"+ c #464498",
"@ c #484598",
"# c #4F4E9A",
"$ c #5D5D9D",
"% c #5D5E9E",
"& c #696DA1",
"* c #7378A4",
"= c #7B77B2",
"- c #7C78B2",
"; c #7C79B3",
": c #7D7AB3",
"> c #7B81A5",
", c #7B80A6",
"< c #7C82A8",
"1 c #8C95AA",
/* pixels */
"=.      @11<                          <11@      X-",
"        +11*                          *11+        ",
"        +11*                          *11+        ",
"        +11*                          *11+        ",
"        +11*                          *11+        ",
"        +11*                          *11+        ",
"        +11*                          *11+        ",
"        +11*                          *11+        ",
"        +11*                          *11+        ",
"        +11*                          *11+        ",
"        +11*                          *11+        ",
"        +11*                          *11+        ",
"        +11*                          *11+        ",
"        +11*                          *11+        ",
"########%11>##########################>11%########",
"11111111111111111111111111111111111111111111111111",
"11111111111111111111111111111111111111111111111111",
"&&&&&&&&&&&&&&&&&&&&&&&,11,&&&&&&&&&&&&&&&&&&&&&&&",
"                       $11$                       ",
"                       $11$                       ",
"                       $11$                       ",
"                       $11$                       ",
"                       $11$                       ",
"                       $11$                       ",
"                       $11$                       ",
"                       $11$                       ",
"                       $11$                       ",
"                       $11$                       ",
"                       $11$                       ",
"                       $11$                       ",
"                       $11$                       ",
"                       $11$                       ",
"&&&&&&&&&&&&&&&&&&&&&&&,11,&&&&&&&&&&&&&&&&&&&&&&&",
"11111111111111111111111111111111111111111111111111",
"11111111111111111111111111111111111111111111111111",
"########%11>##########################>11%########",
"        +11*                          *11+        ",
"        +11*                          *11+        ",
"        +11*                          *11+        ",
"        +11*                          *11+        ",
"        +11*                          *11+        ",
"        +11*                          *11+        ",
"        +11*                          *11+        ",
"        +11*                          *11+        ",
"        +11*                          *11+        ",
"        +11*                          *11+        ",
"        +11*                          *11+        ",
"        +11*                          *11+        ",
"        +11*                          *11+        ",
";o      @11<                          <11@      O:"
};
